<?xml version="1.0" encoding="UTF-8"?>
<svg width="108px" height="108px" viewBox="0 0 108 108" version="1.1" xmlns="http://www.w3.org/2000/svg" xmlns:xlink="http://www.w3.org/1999/xlink">
    <!-- Generator: Sketch 63.1 (92452) - https://sketch.com -->
    <title>Android/App Icon/mipmap-anydpi-v26/ic_foreground</title>
    <desc>Created with Sketch.</desc>
    <defs>
        <path d="M34.6742367,18.7006315 L28.4052579,22.4373495 C28.177545,22.5730812 27.882915,22.4985157 27.7471833,22.2708028 C27.684088,22.1649496 27.6641212,22.0388844 27.691418,21.9187145 L29.3080271,14.801852 C29.3470728,14.6299594 29.2887612,14.4504947 29.1561366,14.3343812 L23.6650856,9.52693744 C23.4656299,9.352313 23.4455003,9.04906117 23.6201247,8.84960554 C23.7012995,8.75688786 23.8150246,8.69894204 23.9377481,8.68776833 L31.2058463,8.02602343 C31.3813917,8.0100404 31.5340534,7.89912515 31.6035007,7.73711063 L34.4788233,1.02922892 C34.5832659,0.785573419 34.8654551,0.672719013 35.1091106,0.77716155 C35.2223747,0.825712046 35.3126274,0.915964768 35.3611779,1.02922892 L38.2365006,7.73711063 C38.3059478,7.89912515 38.4586096,8.0100404 38.6341549,8.02602343 L45.9022531,8.68776833 C46.1662578,8.71180539 46.36079,8.94530935 46.3367529,9.20931403 C46.3255792,9.33203756 46.2676334,9.44576263 46.1749157,9.52693744 L40.6838646,14.3343812 C40.5512401,14.4504947 40.4929285,14.6299594 40.5319742,14.801852 L42.1485833,21.9187145 C42.2073046,22.1772257 42.0453429,22.4343935 41.7868316,22.4931148 C41.6666617,22.5204117 41.5405965,22.5004449 41.4347434,22.4373495 L35.1657645,18.7006315 C35.0143508,18.6103791 34.8256505,18.6103791 34.6742367,18.7006315 Z" id="path-1"></path>
        <filter x="-46.0%" y="-40.3%" width="192.0%" height="187.8%" filterUnits="objectBoundingBox" id="filter-2">
            <feMorphology radius="0.5" operator="dilate" in="SourceAlpha" result="shadowSpreadOuter1"></feMorphology>
            <feOffset dx="0" dy="2" in="shadowSpreadOuter1" result="shadowOffsetOuter1"></feOffset>
            <feGaussianBlur stdDeviation="3.5" in="shadowOffsetOuter1" result="shadowBlurOuter1"></feGaussianBlur>
            <feColorMatrix values="0 0 0 0 0.491508152   0 0 0 0 0.491508152   0 0 0 0 0.491508152  0 0 0 1 0" type="matrix" in="shadowBlurOuter1"></feColorMatrix>
        </filter>
    </defs>
    <g id="3-Review" stroke="none" stroke-width="1" fill="none" fill-rule="evenodd">
        <g id="No-Mask">
            <g id="Icon">
                <g id="Android/Adaptive-App-Icon/App-Icon-Front">
                    <g id="Android---Adaptive-App-Icon-Front">
                        <g id="Group-4-Copy-3" transform="translate(19.000000, 20.000000)">
                            <path d="M19.6742361,61.3006332 L13.4052573,65.0373512 C13.1775444,65.1730829 12.8829144,65.0985174 12.7471827,64.8708045 C12.6840874,64.7649513 12.6641206,64.6388861 12.6914174,64.5187162 L14.3080265,57.4018537 C14.3470722,57.2299611 14.2887606,57.0504964 14.156136,56.9343829 L8.66508497,52.1269391 C8.46562934,51.9523147 8.44549968,51.6490629 8.62012413,51.4496072 C8.70129894,51.3568896 8.81502401,51.2989437 8.93774755,51.28777 L16.2058457,50.6260251 C16.3813911,50.6100421 16.5340528,50.4991268 16.6035001,50.3371123 L19.4788227,43.6292306 C19.5832653,43.3855751 19.8654545,43.2727207 20.10911,43.3771632 C20.2223741,43.4257137 20.3126268,43.5159665 20.3611773,43.6292306 L23.2365,50.3371123 C23.3059473,50.4991268 23.458609,50.6100421 23.6341543,50.6260251 L30.9022525,51.28777 C31.1662572,51.3118071 31.3607894,51.545311 31.3367523,51.8093157 C31.3255786,51.9320393 31.2676328,52.0457643 31.1749151,52.1269391 L25.683864,56.9343829 C25.5512395,57.0504964 25.4929279,57.2299611 25.5319736,57.4018537 L27.1485827,64.5187162 C27.207304,64.7772274 27.0453423,65.0343952 26.786831,65.0931165 C26.6666611,65.1204134 26.5405959,65.1004466 26.4347428,65.0373512 L20.1657639,61.3006332 C20.0143502,61.2103808 19.8256499,61.2103808 19.6742361,61.3006332 Z" id="Star-Copy-2" fill="#FFFFFF" opacity="0.4"></path>
                            <path d="M49.6742373,61.3006332 L43.4052585,65.0373512 C43.1775456,65.1730829 42.8829156,65.0985174 42.7471839,64.8708045 C42.6840885,64.7649513 42.6641218,64.6388861 42.6914186,64.5187162 L44.3080277,57.4018537 C44.3470734,57.2299611 44.2887618,57.0504964 44.1561372,56.9343829 L38.6650862,52.1269391 C38.4656305,51.9523147 38.4455009,51.6490629 38.6201253,51.4496072 C38.7013001,51.3568896 38.8150252,51.2989437 38.9377487,51.28777 L46.2058469,50.6260251 C46.3813923,50.6100421 46.534054,50.4991268 46.6035013,50.3371123 L49.4788239,43.6292306 C49.5832664,43.3855751 49.8654557,43.2727207 50.1091112,43.3771632 C50.2223753,43.4257137 50.312628,43.5159665 50.3611785,43.6292306 L53.2365012,50.3371123 C53.3059484,50.4991268 53.4586102,50.6100421 53.6341555,50.6260251 L60.9022537,51.28777 C61.1662584,51.3118071 61.3607906,51.545311 61.3367535,51.8093157 C61.3255798,51.9320393 61.267634,52.0457643 61.1749163,52.1269391 L55.6838652,56.9343829 C55.5512407,57.0504964 55.4929291,57.2299611 55.5319748,57.4018537 L57.1485838,64.5187162 C57.2073052,64.7772274 57.0453435,65.0343952 56.7868322,65.0931165 C56.6666623,65.1204134 56.5405971,65.1004466 56.434744,65.0373512 L50.1657651,61.3006332 C50.0143514,61.2103808 49.8256511,61.2103808 49.6742373,61.3006332 Z" id="Star-Copy-4" fill="#FFFFFF" opacity="0.398763021"></path>
                            <g id="Star-Copy-3">
                                <use fill="black" fill-opacity="1" filter="url(#filter-2)" xlink:href="#path-1"></use>
                                <use fill="#FFFFFF" fill-rule="evenodd" xlink:href="#path-1"></use>
                            </g>
                            <path d="M12.4742358,34.3006321 L6.20525701,38.0373502 C5.97754411,38.1730818 5.68291409,38.0985163 5.54718243,37.8708034 C5.48408707,37.7649502 5.4641203,37.638885 5.49141712,37.5187151 L7.10802618,30.4018526 C7.14707191,30.22996 7.08876031,30.0504954 6.95613573,29.9343818 L1.46508469,25.1269381 C1.26562905,24.9523136 1.2454994,24.6490618 1.42012384,24.4496062 C1.50129866,24.3568885 1.61502372,24.2989427 1.73774726,24.2877689 L9.00584543,23.6260241 C9.18139078,23.610041 9.33405253,23.4991258 9.40349979,23.3371113 L12.2788224,16.6292295 C12.383265,16.385574 12.6654542,16.2727196 12.9091097,16.3771622 C13.0223738,16.4257127 13.1126266,16.5159654 13.1611771,16.6292295 L16.0364997,23.3371113 C16.105947,23.4991258 16.2586087,23.610041 16.4341541,23.6260241 L23.7022522,24.2877689 C23.9662569,24.311806 24.1607891,24.54531 24.136752,24.8093146 C24.1255783,24.9320382 24.0676325,25.0457632 23.9749148,25.1269381 L18.4838638,29.9343818 C18.3512392,30.0504954 18.2929276,30.22996 18.3319733,30.4018526 L19.9485824,37.5187151 C20.0073037,37.7772263 19.845342,38.0343941 19.5868308,38.0931155 C19.4666609,38.1204123 19.3405957,38.1004455 19.2347425,38.0373502 L12.9657637,34.3006321 C12.8143499,34.2103797 12.6256496,34.2103797 12.4742358,34.3006321 Z" id="Star-Copy-5" fill="#FFFFFF" opacity="0.4"></path>
                            <path d="M56.2742376,34.3006321 L50.0052588,38.0373502 C49.7775459,38.1730818 49.4829158,38.0985163 49.3471842,37.8708034 C49.2840888,37.7649502 49.264122,37.638885 49.2914189,37.5187151 L50.9080279,30.4018526 C50.9470737,30.22996 50.8887621,30.0504954 50.7561375,29.9343818 L45.2650864,25.1269381 C45.0656308,24.9523136 45.0455011,24.6490618 45.2201256,24.4496062 C45.3013004,24.3568885 45.4150255,24.2989427 45.537749,24.2877689 L52.8058472,23.6260241 C52.9813925,23.610041 53.1340543,23.4991258 53.2035015,23.3371113 L56.0788242,16.6292295 C56.1832667,16.385574 56.4654559,16.2727196 56.7091114,16.3771622 C56.8223756,16.4257127 56.9126283,16.5159654 56.9611788,16.6292295 L59.8365014,23.3371113 C59.9059487,23.4991258 60.0586105,23.610041 60.2341558,23.6260241 L67.502254,24.2877689 C67.7662586,24.311806 67.9607908,24.54531 67.9367538,24.8093146 C67.92558,24.9320382 67.8676342,25.0457632 67.7749165,25.1269381 L62.2838655,29.9343818 C62.1512409,30.0504954 62.0929293,30.22996 62.1319751,30.4018526 L63.7485841,37.5187151 C63.8073054,37.7772263 63.6453437,38.0343941 63.3868325,38.0931155 C63.2666626,38.1204123 63.1405974,38.1004455 63.0347442,38.0373502 L56.7657654,34.3006321 C56.6143516,34.2103797 56.4256513,34.2103797 56.2742376,34.3006321 Z" id="Star-Copy-6" fill="#FFFFFF" opacity="0.398763021"></path>
                        </g>
                    </g>
                </g>
            </g>
        </g>
    </g>
</svg>